<?xml version="1.0" encoding="UTF-8" standalone="no"?>
<svg
   xmlns:dc="http://purl.org/dc/elements/1.1/"
   xmlns:cc="http://creativecommons.org/ns#"
   xmlns:rdf="http://www.w3.org/1999/02/22-rdf-syntax-ns#"
   xmlns:svg="http://www.w3.org/2000/svg"
   xmlns="http://www.w3.org/2000/svg"
   viewBox="0 0 72 71.999997"
   height="72"
   width="72"
   xml:space="preserve"
   id="svg2"
   version="1.1"><metadata
     id="metadata8"><rdf:RDF><cc:Work
         rdf:about=""><dc:format>image/svg+xml</dc:format><dc:type
           rdf:resource="http://purl.org/dc/dcmitype/StillImage" /><dc:title></dc:title></cc:Work></rdf:RDF></metadata><defs
     id="defs6"><clipPath
       id="clipPath20"
       clipPathUnits="userSpaceOnUse"><path
         id="path18"
         d="m 1818.76,2858.9 2492.49,0 0,2212.21 -2492.49,0 z" /></clipPath></defs><g
     transform="matrix(1.3333333,0,0,-1.3333333,-374.66932,576.67937)"
     id="g10"><g
       id="g5959"><path
         d="m 285.98,408.012 44.044,0 0,-25.025 -44.044,0 0,25.025"
         style="fill:#ffffff;fill-opacity:1;stroke:#000000;stroke-width:1.00125003;stroke-linecap:butt;stroke-linejoin:miter;stroke-miterlimit:10;stroke-dasharray:none;stroke-opacity:1"
         id="path36" /><path
         id="path3399"
         style="fill:#000000;stroke:#000000;stroke-width:1.00100005;stroke-linecap:square;stroke-linejoin:miter;stroke-miterlimit:10;stroke-dasharray:none;stroke-opacity:1;fill-opacity:1"
         d="m 286.17511,382.98684 7.00703,0 0,2.00195 -7.00703,0 z" /><path
         d="m 288.983,413.017 0,-5.005"
         style="fill:none;stroke:#000000;stroke-width:1.00100005;stroke-linecap:butt;stroke-linejoin:round;stroke-miterlimit:10;stroke-dasharray:none;stroke-opacity:1"
         id="path22" /><path
         d="m 285.98,413.017 15.0148,0 0,15.0152 -15.0148,0 z"
         style="fill:#00fc04;fill-opacity:1;fill-rule:nonzero;stroke:none"
         id="path24" /><path
         d="m 285.98,413.017 15.0148,0 0,15.0152 -15.0148,0 z"
         style="fill:none;stroke:#000000;stroke-width:1.00100005;stroke-linecap:square;stroke-linejoin:miter;stroke-miterlimit:10;stroke-dasharray:none;stroke-opacity:1"
         id="path26" /><path
         d="m 299.994,420.525 0,0 c 0,3.593 -2.913,6.506 -6.506,6.506 -3.594,0 -6.507,-2.913 -6.507,-6.506 0,-3.594 2.913,-6.507 6.507,-6.507 3.593,0 6.506,2.913 6.506,6.507"
         style="fill:#00fc04;fill-opacity:1;fill-rule:nonzero;stroke:none"
         id="path28" /><path
         d="m 299.994,420.525 0,0 c 0,3.593 -2.913,6.506 -6.506,6.506 -3.594,0 -6.507,-2.913 -6.507,-6.506 0,-3.594 2.913,-6.507 6.507,-6.507 3.593,0 6.506,2.913 6.506,6.507"
         style="fill:none;stroke:#000000;stroke-width:1.00100005;stroke-linecap:square;stroke-linejoin:miter;stroke-miterlimit:10;stroke-dasharray:none;stroke-opacity:1"
         id="path30" /><path
         d="m 285.98,413.017 7.00703,0 0,1.00117 -7.00703,0 z"
         style="fill:none;stroke:#000000;stroke-width:1.00100005;stroke-linecap:square;stroke-linejoin:miter;stroke-miterlimit:10;stroke-dasharray:none;stroke-opacity:1"
         id="path32" /><path
         d="m 285.98,427.031 7.00703,0 0,1.00117 -7.00703,0 z"
         style="fill:none;stroke:#000000;stroke-width:1.00100005;stroke-linecap:square;stroke-linejoin:miter;stroke-miterlimit:10;stroke-dasharray:none;stroke-opacity:1"
         id="path34" /><path
         d="m 285.98,406.01 7.00703,0 0,2.00195 -7.00703,0 z"
         style="fill:#000000;fill-opacity:1;fill-rule:nonzero;stroke:none"
         id="path42" /><path
         d="m 285.98,406.01 7.00703,0 0,2.00195 -7.00703,0 z"
         style="fill:none;stroke:#000000;stroke-width:1.00100005;stroke-linecap:square;stroke-linejoin:miter;stroke-miterlimit:10;stroke-dasharray:none;stroke-opacity:1"
         id="path44" /><path
         d="m 323.017,406.01 7.00664,0 0,2.00195 -7.00664,0 z"
         style="fill:#000000;fill-opacity:1;fill-rule:nonzero;stroke:none"
         id="path46" /><path
         d="m 323.017,406.01 7.00664,0 0,2.00195 -7.00664,0 z"
         style="fill:none;stroke:#000000;stroke-width:1.00100005;stroke-linecap:square;stroke-linejoin:miter;stroke-miterlimit:10;stroke-dasharray:none;stroke-opacity:1"
         id="path48" /><text
         transform="scale(1,-1)"
         style="font-style:normal;font-variant:normal;font-weight:normal;font-stretch:normal;font-size:18.75000047px;line-height:125%;font-family:'DejaVu Sans';-inkscape-font-specification:'DejaVu Sans, Normal';text-align:start;writing-mode:lr;text-anchor:start;fill:#000000;fill-opacity:1;fill-rule:nonzero;stroke:none;"
         id="text54"
         x="290.50482"
         y="-388.65903"><tspan
           id="tspan3375"
           x="290.50482"
           y="-388.65903"
           style="font-style:normal;font-variant:normal;font-weight:normal;font-stretch:normal;font-size:18.75000047px;line-height:125%;font-family:'DejaVu Sans';-inkscape-font-specification:'DejaVu Sans, Normal';text-align:start;writing-mode:lr;text-anchor:start;">Pd</tspan></text>
</g></g></svg>