<?xml version="1.0" encoding="UTF-8" standalone="no"?>
<svg
   xmlns:dc="http://purl.org/dc/elements/1.1/"
   xmlns:cc="http://creativecommons.org/ns#"
   xmlns:rdf="http://www.w3.org/1999/02/22-rdf-syntax-ns#"
   xmlns:svg="http://www.w3.org/2000/svg"
   xmlns="http://www.w3.org/2000/svg"
   xmlns:sodipodi="http://sodipodi.sourceforge.net/DTD/sodipodi-0.dtd"
   xmlns:inkscape="http://www.inkscape.org/namespaces/inkscape"
   version="1.1"
   id="svg2"
   xml:space="preserve"
   width="72"
   height="72"
   viewBox="0 0 72 71.999997"
   inkscape:version="0.91 r13725"
   sodipodi:docname="icon_inkscape.svg"><sodipodi:namedview
     pagecolor="#ffffff"
     bordercolor="#666666"
     borderopacity="1"
     objecttolerance="10"
     gridtolerance="10"
     guidetolerance="10"
     inkscape:pageopacity="0"
     inkscape:pageshadow="2"
     inkscape:window-width="1168"
     inkscape:window-height="645"
     id="namedview28"
     showgrid="false"
     inkscape:zoom="5.4361733"
     inkscape:cx="21.886282"
     inkscape:cy="34.310666"
     inkscape:window-x="0"
     inkscape:window-y="0"
     inkscape:window-maximized="0"
     inkscape:current-layer="g5959" /><metadata
     id="metadata8"><rdf:RDF><cc:Work
         rdf:about=""><dc:format>image/svg+xml</dc:format><dc:type
           rdf:resource="http://purl.org/dc/dcmitype/StillImage" /><dc:title /></cc:Work></rdf:RDF></metadata><defs
     id="defs6"><clipPath
       clipPathUnits="userSpaceOnUse"
       id="clipPath20"><path
         d="m 1818.76,2858.9 2492.49,0 0,2212.21 -2492.49,0 z"
         id="path18"
         inkscape:connector-curvature="0" /></clipPath></defs><g
     id="g10"
     transform="matrix(1.3333333,0,0,-1.3333333,-374.66932,576.67937)"><g
       id="g5959"><path
         inkscape:connector-curvature="0"
         id="path36"
         style="fill:#ffffff;fill-opacity:1;stroke:#000000;stroke-width:1.00125003;stroke-linecap:butt;stroke-linejoin:miter;stroke-miterlimit:10;stroke-dasharray:none;stroke-opacity:1"
         d="m 285.98,408.012 44.044,0 0,-25.025 -44.044,0 0,25.025" /><path
         d="m 286.17511,382.98684 7.00703,0 0,2.00195 -7.00703,0 z"
         style="fill:#000000;stroke:#000000;stroke-width:1.00100005;stroke-linecap:square;stroke-linejoin:miter;stroke-miterlimit:10;stroke-dasharray:none;stroke-opacity:1;fill-opacity:1"
         id="path3399"
         inkscape:connector-curvature="0" /><path
         inkscape:connector-curvature="0"
         id="path22"
         style="fill:none;stroke:#000000;stroke-width:1.00100005;stroke-linecap:butt;stroke-linejoin:round;stroke-miterlimit:10;stroke-dasharray:none;stroke-opacity:1"
         d="m 288.983,413.017 0,-5.005" /><path
         inkscape:connector-curvature="0"
         id="path24"
         style="fill:#00fc04;fill-opacity:1;fill-rule:nonzero;stroke:none"
         d="m 285.98,413.017 15.0148,0 0,15.0152 -15.0148,0 z" /><path
         inkscape:connector-curvature="0"
         id="path26"
         style="fill:none;stroke:#000000;stroke-width:1.00100005;stroke-linecap:square;stroke-linejoin:miter;stroke-miterlimit:10;stroke-dasharray:none;stroke-opacity:1"
         d="m 285.98,413.017 15.0148,0 0,15.0152 -15.0148,0 z" /><path
         inkscape:connector-curvature="0"
         id="path28"
         style="fill:#00fc04;fill-opacity:1;fill-rule:nonzero;stroke:none"
         d="m 299.994,420.525 0,0 c 0,3.593 -2.913,6.506 -6.506,6.506 -3.594,0 -6.507,-2.913 -6.507,-6.506 0,-3.594 2.913,-6.507 6.507,-6.507 3.593,0 6.506,2.913 6.506,6.507" /><path
         inkscape:connector-curvature="0"
         id="path30"
         style="fill:none;stroke:#000000;stroke-width:1.00100005;stroke-linecap:square;stroke-linejoin:miter;stroke-miterlimit:10;stroke-dasharray:none;stroke-opacity:1"
         d="m 299.994,420.525 0,0 c 0,3.593 -2.913,6.506 -6.506,6.506 -3.594,0 -6.507,-2.913 -6.507,-6.506 0,-3.594 2.913,-6.507 6.507,-6.507 3.593,0 6.506,2.913 6.506,6.507" /><path
         inkscape:connector-curvature="0"
         id="path42"
         style="fill:#000000;fill-opacity:1;fill-rule:nonzero;stroke:none"
         d="m 285.98,406.01 7.00703,0 0,2.00195 -7.00703,0 z" /><path
         inkscape:connector-curvature="0"
         id="path44"
         style="fill:none;stroke:#000000;stroke-width:1.00100005;stroke-linecap:square;stroke-linejoin:miter;stroke-miterlimit:10;stroke-dasharray:none;stroke-opacity:1"
         d="m 285.98,406.01 7.00703,0 0,2.00195 -7.00703,0 z" /><path
         inkscape:connector-curvature="0"
         id="path46"
         style="fill:#000000;fill-opacity:1;fill-rule:nonzero;stroke:none"
         d="m 323.017,406.01 7.00664,0 0,2.00195 -7.00664,0 z" /><path
         inkscape:connector-curvature="0"
         id="path48"
         style="fill:none;stroke:#000000;stroke-width:1.00100005;stroke-linecap:square;stroke-linejoin:miter;stroke-miterlimit:10;stroke-dasharray:none;stroke-opacity:1"
         d="m 323.017,406.01 7.00664,0 0,2.00195 -7.00664,0 z" /><text
         sodipodi:linespacing="125%"
         y="-388.65903"
         x="290.50482"
         id="text54"
         style="font-style:normal;font-variant:normal;font-weight:normal;font-stretch:normal;font-size:18.75000047px;line-height:125%;font-family:'DejaVu Sans';-inkscape-font-specification:'DejaVu Sans, Normal';text-align:start;writing-mode:lr;text-anchor:start;fill:#000000;fill-opacity:1;fill-rule:nonzero;stroke:none;"
         transform="scale(1,-1)"><tspan
           style="font-style:normal;font-variant:normal;font-weight:normal;font-stretch:normal;font-size:18.75000047px;line-height:125%;font-family:'DejaVu Sans';-inkscape-font-specification:'DejaVu Sans, Normal';text-align:start;writing-mode:lr;text-anchor:start;"
           y="-388.65903"
           x="290.50482"
           id="tspan3375">Pd</tspan></text>
</g></g></svg>